<svg id="Rounder_Expanded_White" data-name="Rounder Expanded White" xmlns="http://www.w3.org/2000/svg" viewBox="0 0 32 32"><defs><style>.cls-1{fill:#fff;}</style></defs><title>flex-white</title><path class="cls-1" d="M1.7,12.5a1,1,0,0,0-1.7.7v9.1a.91.91,0,0,0,.3.7l8.6,8.6a1,1,0,0,0,1.7-.7V21.8a.91.91,0,0,0-.3-.7Z"/><path class="cls-1" d="M1,0A1.08,1.08,0,0,0,0,1V7.6a.91.91,0,0,0,.3.7L15,23a.91.91,0,0,0,.7.3H25.9a1,1,0,0,0,.7-1.7L18,12.9a.91.91,0,0,0-.7-.3H11.7a1,1,0,0,1,0-2H31a1,1,0,0,0,.7-1.7L23.1.3a1.08,1.08,0,0,0-.7-.3Z"/></svg>